<svg width="18" height="19" viewBox="0 0 18 19" fill="none" xmlns="http://www.w3.org/2000/svg">
<path d="M4.8051 4.35981V1.7998C4.8051 1.2398 5.2451 0.799805 5.8051 0.799805C6.3651 0.799805 6.8051 1.2398 6.8051 1.7998V4.35981C6.8051 4.91981 6.3651 5.35981 5.8051 5.35981C5.2451 5.35981 4.8051 4.91981 4.8051 4.35981ZM12.2051 5.35981C12.7651 5.35981 13.2051 4.91981 13.2051 4.35981V1.7998C13.2051 1.2398 12.7651 0.799805 12.2051 0.799805C11.6451 0.799805 11.2051 1.2398 11.2051 1.7998V4.35981C11.2051 4.91981 11.6451 5.35981 12.2051 5.35981ZM5.4451 8.7998H12.5451C12.9851 8.7998 13.3451 8.43981 13.3451 7.9998C13.3451 7.5598 12.9851 7.1998 12.5451 7.1998H5.4451C5.0051 7.1998 4.6451 7.5598 4.6451 7.9998C4.6451 8.43981 5.0051 8.7998 5.4451 8.7998ZM16.6051 2.1998H14.9451C14.5051 2.1998 14.1451 2.5598 14.1451 2.9998C14.1451 3.4398 14.5051 3.7998 14.9451 3.7998H15.8051V17.3998H2.2051V3.7998H3.0651C3.5051 3.7998 3.8651 3.4398 3.8651 2.9998C3.8651 2.5598 3.5051 2.1998 3.0651 2.1998H1.4051C0.965102 2.1998 0.605103 2.63979 0.605103 3.07979V18.1998C0.605103 18.6398 0.965102 18.9998 1.4051 18.9998H16.6051C17.0451 18.9998 17.4051 18.6398 17.4051 18.1998V3.07979C17.4051 2.63979 17.0451 2.1998 16.6051 2.1998ZM8.3451 3.7998H9.6651C10.1051 3.7998 10.4651 3.4398 10.4651 2.9998C10.4651 2.5598 10.1051 2.1998 9.6651 2.1998H8.3451C7.9051 2.1998 7.5451 2.5598 7.5451 2.9998C7.5451 3.4398 7.9051 3.7998 8.3451 3.7998ZM5.4451 12.3998H12.5451C12.9851 12.3998 13.3451 12.0398 13.3451 11.5998C13.3451 11.1598 12.9851 10.7998 12.5451 10.7998H5.4451C5.0051 10.7998 4.6451 11.1598 4.6451 11.5998C4.6451 12.0398 5.0051 12.3998 5.4451 12.3998Z" fill="#915DFF"/>
</svg>
