<svg width="20" height="20" viewBox="0 0 20 20" fill="none" xmlns="http://www.w3.org/2000/svg">
<path d="M12.765 19.1998C10.285 19.1998 6.38498 18.3798 5.42498 17.6998C5.20498 17.5398 5.08499 17.2998 5.08499 17.0398V9.2198C5.08499 8.9798 5.20499 8.73981 5.38499 8.59981C5.44499 8.55981 6.84499 7.4598 8.30499 6.6398C10.125 5.6398 11.385 4.23981 11.685 3.35981C12.045 2.27981 12.565 0.799805 14.205 0.799805C14.985 0.799805 15.625 1.2398 15.965 1.9998C16.645 3.5598 15.925 5.7198 14.725 7.4198C15.525 7.5998 16.525 7.8598 17.125 8.0398C18.225 8.3798 18.945 9.17982 19.105 10.1598C19.245 11.1598 18.745 12.1798 17.685 12.9598C16.905 15.0598 15.565 18.3798 14.585 18.9198C14.205 19.1198 13.545 19.1998 12.765 19.1998ZM6.68499 16.5598C8.20499 17.1998 12.885 17.8598 13.765 17.5198C14.225 17.0998 15.405 14.4198 16.225 12.1598C16.285 11.9998 16.385 11.8598 16.525 11.7598C17.185 11.3198 17.525 10.7998 17.465 10.3598C17.405 9.99981 17.085 9.6998 16.605 9.5398C15.605 9.2198 13.125 8.67981 13.085 8.67981C12.805 8.61981 12.585 8.4198 12.485 8.1398C12.385 7.8598 12.465 7.55981 12.665 7.35982C14.465 5.41982 14.785 3.4398 14.445 2.6398C14.345 2.3998 14.225 2.3998 14.165 2.3998C13.765 2.3998 13.585 2.67981 13.165 3.87981C12.685 5.27981 11.025 6.9598 9.04499 8.0398C8.08499 8.5598 7.12499 9.2598 6.64499 9.6198V16.5598H6.68499ZM3.52498 17.1198V9.1398C3.52498 8.4198 2.94498 7.8398 2.22498 7.8398C1.50498 7.8398 0.924983 8.4198 0.924983 9.1398V17.1198C0.924983 17.8398 1.50498 18.4198 2.22498 18.4198C2.92498 18.4198 3.52498 17.8198 3.52498 17.1198Z" fill="#915DFF"/>
</svg>
