<svg width="16" height="12" viewBox="0 0 16 12" fill="none" xmlns="http://www.w3.org/2000/svg">
<path d="M15.6 1.94812C15.4 1.22085 14.9 0.701365 14.2 0.493573C13 0.181885 7.89999 0.181885 7.89999 0.181885C7.89999 0.181885 2.90001 0.181885 1.60001 0.493573C0.900006 0.701365 0.399997 1.22085 0.199997 1.94812C-3.05474e-06 3.29877 0 6.00007 0 6.00007C0 6.00007 3.03984e-06 8.70137 0.300003 10.052C0.500003 10.7793 0.999997 11.2988 1.7 11.5066C2.9 11.8182 8 11.8182 8 11.8182C8 11.8182 13 11.8182 14.3 11.5066C15 11.2988 15.5 10.7793 15.7 10.052C16 8.70137 16 6.00007 16 6.00007C16 6.00007 16 3.29877 15.6 1.94812ZM6.39999 8.49357V3.50656L10.6 6.00007L6.39999 8.49357Z" fill="white"/>
</svg>
